<mxfile host="app.diagrams.net" modified="2023-03-28T23:37:21.025Z" agent="5.0 (Macintosh; Intel Mac OS X 10_15_7) AppleWebKit/605.1.15 (KHTML, like Gecko) Version/16.2 Safari/605.1.15" etag="9fL4-CoEa1QsmpyNQD73" version="21.0.8" type="github">
  <diagram name="Page-1" id="58cdce13-f638-feb5-8d6f-7d28b1aa9fa0">
    <mxGraphModel dx="3174" dy="1187" grid="1" gridSize="10" guides="1" tooltips="1" connect="1" arrows="1" fold="1" page="1" pageScale="1" pageWidth="1100" pageHeight="850" background="none" math="0" shadow="0">
      <root>
        <mxCell id="0" />
        <mxCell id="1" parent="0" />
        <mxCell id="5excqeMvxNLi3dYJ7mvh-1" style="rounded=1;orthogonalLoop=1;jettySize=auto;html=1;entryX=0;entryY=0.5;entryDx=0;entryDy=0;" edge="1" parent="1" source="382b91b5511bd0f7-6" target="lkW39gLueBYvl8RRp3PP-4">
          <mxGeometry relative="1" as="geometry" />
        </mxCell>
        <mxCell id="382b91b5511bd0f7-6" value="&lt;font style=&quot;font-size: 18px;&quot;&gt;Unoccupied&lt;/font&gt;" style="rounded=1;whiteSpace=wrap;html=1;arcSize=24;fillColor=#94e3fe;strokeColor=#00a3d7;shadow=0;comic=0;labelBackgroundColor=none;fontFamily=Verdana;fontSize=12;fontColor=#000000;align=center;" parent="1" vertex="1">
          <mxGeometry x="70" y="240" width="190" height="120" as="geometry" />
        </mxCell>
        <mxCell id="lkW39gLueBYvl8RRp3PP-1" style="edgeStyle=orthogonalEdgeStyle;orthogonalLoop=1;jettySize=auto;html=1;entryX=0.75;entryY=1;entryDx=0;entryDy=0;exitX=0.25;exitY=1;exitDx=0;exitDy=0;curved=1;" parent="1" source="382b91b5511bd0f7-6" target="382b91b5511bd0f7-6" edge="1">
          <mxGeometry relative="1" as="geometry">
            <Array as="points">
              <mxPoint x="118" y="400" />
              <mxPoint x="213" y="400" />
            </Array>
          </mxGeometry>
        </mxCell>
        <mxCell id="5excqeMvxNLi3dYJ7mvh-3" style="rounded=1;orthogonalLoop=1;jettySize=auto;html=1;exitX=0.211;exitY=1.008;exitDx=0;exitDy=0;entryX=0.5;entryY=0;entryDx=0;entryDy=0;exitPerimeter=0;" edge="1" parent="1" source="lkW39gLueBYvl8RRp3PP-4" target="lkW39gLueBYvl8RRp3PP-5">
          <mxGeometry relative="1" as="geometry" />
        </mxCell>
        <mxCell id="lkW39gLueBYvl8RRp3PP-4" value="&lt;font style=&quot;font-size: 18px;&quot;&gt;Occupied&lt;/font&gt;" style="rounded=1;whiteSpace=wrap;html=1;arcSize=24;fillColor=#94e3fe;strokeColor=#00a3d7;shadow=0;comic=0;labelBackgroundColor=none;fontFamily=Verdana;fontSize=12;fontColor=#000000;align=center;" parent="1" vertex="1">
          <mxGeometry x="820" y="150" width="190" height="120" as="geometry" />
        </mxCell>
        <mxCell id="5excqeMvxNLi3dYJ7mvh-4" style="edgeStyle=orthogonalEdgeStyle;rounded=1;orthogonalLoop=1;jettySize=auto;html=1;exitX=0.989;exitY=0.133;exitDx=0;exitDy=0;entryX=0.795;entryY=1.008;entryDx=0;entryDy=0;entryPerimeter=0;curved=1;exitPerimeter=0;" edge="1" parent="1" source="lkW39gLueBYvl8RRp3PP-5" target="lkW39gLueBYvl8RRp3PP-4">
          <mxGeometry relative="1" as="geometry" />
        </mxCell>
        <mxCell id="5excqeMvxNLi3dYJ7mvh-5" style="orthogonalLoop=1;jettySize=auto;html=1;exitX=0;exitY=0.5;exitDx=0;exitDy=0;entryX=1;entryY=0.5;entryDx=0;entryDy=0;" edge="1" parent="1" source="lkW39gLueBYvl8RRp3PP-5" target="382b91b5511bd0f7-6">
          <mxGeometry relative="1" as="geometry" />
        </mxCell>
        <mxCell id="lkW39gLueBYvl8RRp3PP-5" value="&lt;font style=&quot;font-size: 18px;&quot;&gt;Checking Occupied&lt;/font&gt;" style="rounded=1;whiteSpace=wrap;html=1;arcSize=24;fillColor=#94e3fe;strokeColor=#00a3d7;shadow=0;comic=0;labelBackgroundColor=none;fontFamily=Verdana;fontSize=12;fontColor=#000000;align=center;" parent="1" vertex="1">
          <mxGeometry x="480" y="580" width="190" height="120" as="geometry" />
        </mxCell>
        <mxCell id="5excqeMvxNLi3dYJ7mvh-2" style="edgeStyle=orthogonalEdgeStyle;orthogonalLoop=1;jettySize=auto;html=1;exitX=1;exitY=0.25;exitDx=0;exitDy=0;entryX=1.011;entryY=0.808;entryDx=0;entryDy=0;entryPerimeter=0;curved=1;" edge="1" parent="1" source="lkW39gLueBYvl8RRp3PP-4" target="lkW39gLueBYvl8RRp3PP-4">
          <mxGeometry relative="1" as="geometry">
            <Array as="points">
              <mxPoint x="1060" y="180" />
              <mxPoint x="1060" y="247" />
            </Array>
          </mxGeometry>
        </mxCell>
        <mxCell id="5excqeMvxNLi3dYJ7mvh-6" value="" style="endArrow=classic;html=1;rounded=0;" edge="1" parent="1">
          <mxGeometry width="50" height="50" relative="1" as="geometry">
            <mxPoint x="-30" y="299.5" as="sourcePoint" />
            <mxPoint x="70" y="299.5" as="targetPoint" />
          </mxGeometry>
        </mxCell>
        <mxCell id="5excqeMvxNLi3dYJ7mvh-7" style="edgeStyle=orthogonalEdgeStyle;orthogonalLoop=1;jettySize=auto;html=1;exitX=0.25;exitY=1;exitDx=0;exitDy=0;entryX=0.75;entryY=1;entryDx=0;entryDy=0;curved=1;" edge="1" parent="1" source="lkW39gLueBYvl8RRp3PP-5" target="lkW39gLueBYvl8RRp3PP-5">
          <mxGeometry relative="1" as="geometry">
            <Array as="points">
              <mxPoint x="548" y="740" />
              <mxPoint x="643" y="740" />
            </Array>
          </mxGeometry>
        </mxCell>
        <mxCell id="5excqeMvxNLi3dYJ7mvh-8" value="Constantly Checked&lt;br&gt;Sensors detect no light sound or motion" style="text;html=1;strokeColor=none;fillColor=none;align=center;verticalAlign=middle;whiteSpace=wrap;rounded=0;" vertex="1" parent="1">
          <mxGeometry x="85" y="405" width="160" height="40" as="geometry" />
        </mxCell>
        <mxCell id="5excqeMvxNLi3dYJ7mvh-9" value="Sensors detect light, sound or motion" style="text;html=1;strokeColor=none;fillColor=none;align=center;verticalAlign=middle;whiteSpace=wrap;rounded=0;" vertex="1" parent="1">
          <mxGeometry x="420" y="210" width="160" height="40" as="geometry" />
        </mxCell>
        <mxCell id="5excqeMvxNLi3dYJ7mvh-10" value="Sensors detect light, sound or motion after OAI minutes" style="text;html=1;strokeColor=none;fillColor=none;align=center;verticalAlign=middle;whiteSpace=wrap;rounded=0;" vertex="1" parent="1">
          <mxGeometry x="1060" y="200" width="160" height="40" as="geometry" />
        </mxCell>
        <mxCell id="5excqeMvxNLi3dYJ7mvh-12" style="edgeStyle=orthogonalEdgeStyle;orthogonalLoop=1;jettySize=auto;html=1;exitX=0.25;exitY=0;exitDx=0;exitDy=0;entryX=0.75;entryY=0;entryDx=0;entryDy=0;curved=1;" edge="1" parent="1" source="382b91b5511bd0f7-6" target="382b91b5511bd0f7-6">
          <mxGeometry relative="1" as="geometry">
            <Array as="points">
              <mxPoint x="118" y="200" />
              <mxPoint x="213" y="200" />
            </Array>
          </mxGeometry>
        </mxCell>
        <mxCell id="5excqeMvxNLi3dYJ7mvh-13" value="&lt;p style=&quot;margin: 0px; font-stretch: normal; line-height: normal;&quot;&gt;Sensors measure air quality, humidity and temperature every UPI minutes&lt;/p&gt;" style="text;html=1;strokeColor=none;fillColor=none;align=center;verticalAlign=middle;whiteSpace=wrap;rounded=0;" vertex="1" parent="1">
          <mxGeometry x="70" y="160" width="205" height="40" as="geometry" />
        </mxCell>
        <mxCell id="5excqeMvxNLi3dYJ7mvh-15" style="edgeStyle=orthogonalEdgeStyle;orthogonalLoop=1;jettySize=auto;html=1;exitX=0.25;exitY=0;exitDx=0;exitDy=0;entryX=0.721;entryY=-0.025;entryDx=0;entryDy=0;entryPerimeter=0;curved=1;" edge="1" parent="1" source="lkW39gLueBYvl8RRp3PP-4" target="lkW39gLueBYvl8RRp3PP-4">
          <mxGeometry relative="1" as="geometry">
            <Array as="points">
              <mxPoint x="868" y="110" />
              <mxPoint x="957" y="110" />
            </Array>
          </mxGeometry>
        </mxCell>
        <mxCell id="5excqeMvxNLi3dYJ7mvh-16" style="edgeStyle=orthogonalEdgeStyle;orthogonalLoop=1;jettySize=auto;html=1;entryX=0.995;entryY=0.833;entryDx=0;entryDy=0;entryPerimeter=0;curved=1;exitX=1;exitY=0.358;exitDx=0;exitDy=0;exitPerimeter=0;" edge="1" parent="1" source="lkW39gLueBYvl8RRp3PP-5" target="lkW39gLueBYvl8RRp3PP-5">
          <mxGeometry relative="1" as="geometry">
            <Array as="points">
              <mxPoint x="700" y="623" />
              <mxPoint x="700" y="680" />
            </Array>
          </mxGeometry>
        </mxCell>
        <mxCell id="5excqeMvxNLi3dYJ7mvh-17" value="Sensors detect no light, sound and motion after OAI minutes" style="text;html=1;strokeColor=none;fillColor=none;align=center;verticalAlign=middle;whiteSpace=wrap;rounded=0;" vertex="1" parent="1">
          <mxGeometry x="580" y="380" width="160" height="40" as="geometry" />
        </mxCell>
        <mxCell id="5excqeMvxNLi3dYJ7mvh-18" value="Sensors detect no light, sound and motion after OAI minutes" style="text;html=1;strokeColor=none;fillColor=none;align=center;verticalAlign=middle;whiteSpace=wrap;rounded=0;" vertex="1" parent="1">
          <mxGeometry x="495" y="750" width="160" height="40" as="geometry" />
        </mxCell>
        <mxCell id="5excqeMvxNLi3dYJ7mvh-19" value="Sensors measure air quality, humidity and temperature every OPI minutes" style="text;html=1;strokeColor=none;fillColor=none;align=center;verticalAlign=middle;whiteSpace=wrap;rounded=0;" vertex="1" parent="1">
          <mxGeometry x="700" y="650" width="160" height="40" as="geometry" />
        </mxCell>
        <mxCell id="5excqeMvxNLi3dYJ7mvh-20" value="Sensors measure air quality, humidity and temperature every OPI minutes" style="text;html=1;strokeColor=none;fillColor=none;align=center;verticalAlign=middle;whiteSpace=wrap;rounded=0;" vertex="1" parent="1">
          <mxGeometry x="835" y="60" width="160" height="40" as="geometry" />
        </mxCell>
        <mxCell id="5excqeMvxNLi3dYJ7mvh-21" value="Sensors detect light, sound or motion after OAI minutes" style="text;html=1;strokeColor=none;fillColor=none;align=center;verticalAlign=middle;whiteSpace=wrap;rounded=0;" vertex="1" parent="1">
          <mxGeometry x="940" y="445" width="160" height="40" as="geometry" />
        </mxCell>
        <mxCell id="5excqeMvxNLi3dYJ7mvh-22" value="Sensors agree no light sound or motion is detected after OAC minutes" style="text;html=1;strokeColor=none;fillColor=none;align=center;verticalAlign=middle;whiteSpace=wrap;rounded=0;" vertex="1" parent="1">
          <mxGeometry x="230" y="500" width="160" height="40" as="geometry" />
        </mxCell>
      </root>
    </mxGraphModel>
  </diagram>
</mxfile>
